<mxfile host="app.diagrams.net" modified="2023-09-08T09:45:54.716Z" agent="Mozilla/5.0 (Macintosh; Intel Mac OS X 10_15_7) AppleWebKit/537.36 (KHTML, like Gecko) Chrome/116.0.0.0 Safari/537.36" version="21.6.6" etag="6A6PkXlM3nvxatk7DbsG" type="github">
  <diagram name="Page-1" id="_TuhnqFObatl6kYG6SpY">
    <mxGraphModel>
      <root>
        <mxCell id="0" />
        <mxCell id="1" parent="0" />
      </root>
    </mxGraphModel>
  </diagram>
</mxfile>
